<svg xmlns="http://www.w3.org/2000/svg" xmlns:xlink="http://www.w3.org/1999/xlink" viewBox="0 0 424.4 404.32"><defs><style>.cls-1,.cls-15,.cls-17,.cls-18,.cls-2,.cls-20,.cls-22,.cls-24,.cls-25,.cls-8{fill:none;}.cls-2{stroke:#ded8d5;stroke-width:1.97px;}.cls-18,.cls-2,.cls-25{stroke-miterlimit:10;}.cls-3{fill:#ffb1a5;}.cls-4{fill:#ead254;}.cls-5{fill:#00857b;}.cls-6{clip-path:url(#clip-path);}.cls-7{fill:#8e716c;}.cls-15,.cls-17,.cls-20,.cls-22,.cls-24,.cls-8{stroke:#282828;stroke-linecap:round;stroke-linejoin:round;}.cls-8{stroke-width:1.23px;}.cls-9{fill:#fff;}.cls-10{fill:#372f5f;}.cls-11{fill:#1e0f72;}.cls-12{fill:#e6e6e6;}.cls-13{fill:#8a9762;}.cls-14{fill:#282828;}.cls-15{stroke-width:0.99px;}.cls-16{fill:#898989;}.cls-17{stroke-width:1.23px;}.cls-18{stroke:#c98bd2;stroke-width:1.34px;}.cls-19{fill:#444;}.cls-20{stroke-width:1.23px;}.cls-21{fill:#f08e43;}.cls-22{stroke-width:1.4px;}.cls-23{fill:#c94246;}.cls-24{stroke-width:1.53px;}.cls-25{stroke:#8a9762;stroke-width:1.95px;}</style><clipPath id="clip-path" transform="translate(-4.16 -4.04)"><rect class="cls-1" width="459.27" height="367.13"/></clipPath></defs><g id="Layer_2" data-name="Layer 2"><g id="OBJECTS"><line class="cls-2" x1="29.05" y1="56.79" x2="377.48" y2="56.79"/><rect class="cls-2" x="29.05" y="20.49" width="348.43" height="342.61" rx="6.52"/><path class="cls-3" d="M56.17,43.05c0,2.79-1.43,5.06-3.19,5.06s-3.19-2.27-3.19-5.06S51.22,38,53,38,56.17,40.25,56.17,43.05Z" transform="translate(-4.16 -4.04)"/><path class="cls-4" d="M68.55,43.05c0,2.79-1.42,5.06-3.18,5.06s-3.19-2.27-3.19-5.06S63.61,38,65.37,38,68.55,40.25,68.55,43.05Z" transform="translate(-4.16 -4.04)"/><path class="cls-5" d="M80.94,43.05c0,2.79-1.43,5.06-3.19,5.06s-3.18-2.27-3.18-5.06S76,38,77.75,38,80.94,40.25,80.94,43.05Z" transform="translate(-4.16 -4.04)"/><g class="cls-6"><path class="cls-7" d="M343.22,221.17l-36.4-4.86.28,3.62L276,224.09s-20.06,50.47-2.38,161.46h25.31L308,273h3.23l8.83,112.55h25.32C363.09,274.56,343.22,221.17,343.22,221.17Z" transform="translate(-4.16 -4.04)"/><line class="cls-8" x1="292.29" y1="268.97" x2="318.71" y2="268.97"/><path class="cls-9" d="M364.48,167.92c-3.12-5-20.61-4.8-21.53-4.91-4.73-.56,3,37.18,12.87,70.16a11,11,0,0,0,14.88,7.05l.2-.09a11.1,11.1,0,0,0,6.56-12.27C372.78,203,368.08,173.69,364.48,167.92Z" transform="translate(-4.16 -4.04)"/><polygon class="cls-9" points="364.49 177.53 342.15 186.22 340.06 175.6 363.19 169.81 364.49 177.53"/><path class="cls-9" d="M372.87,202.83s-10.58,14.25-10.08,13.59,8.3-23,8.3-23Z" transform="translate(-4.16 -4.04)"/><path class="cls-9" d="M388,183.68l-30.33,39.4a11.2,11.2,0,0,0,2.75,16.21h0a11.14,11.14,0,0,0,15.88-4l25.24-46.7Z" transform="translate(-4.16 -4.04)"/><path class="cls-9" d="M395.85,193.79a12.54,12.54,0,1,1,15.75-8.08A12.54,12.54,0,0,1,395.85,193.79Z" transform="translate(-4.16 -4.04)"/><path class="cls-9" d="M408.81,174.32s3.43-3.57-2.65-6.07-13.58-1.92-18.37,9.75Z" transform="translate(-4.16 -4.04)"/><path class="cls-10" d="M415.11,149.41l12.69,5.53a1.3,1.3,0,0,1,.58,1.87L411.67,188.1a1.6,1.6,0,0,1-2,.77L397,183.34a1.3,1.3,0,0,1-.57-1.87l16.7-31.29A1.61,1.61,0,0,1,415.11,149.41Z" transform="translate(-4.16 -4.04)"/><path class="cls-11" d="M413.89,148.86l12.7,5.52a1.32,1.32,0,0,1,.58,1.88l-16.71,31.29a1.59,1.59,0,0,1-2,.76l-12.7-5.52a1.32,1.32,0,0,1-.58-1.88l16.71-31.29A1.6,1.6,0,0,1,413.89,148.86Z" transform="translate(-4.16 -4.04)"/><polygon class="cls-12" points="408.3 148.01 419.46 152.86 405.84 178.36 394.69 173.51 408.3 148.01"/><polygon class="cls-9" points="419.46 152.86 394.69 173.51 408.3 148.01 419.46 152.86"/><path class="cls-9" d="M402.52,167.21a20.47,20.47,0,0,1,5.38,2,2.89,2.89,0,0,1,1.39,3.19h0a2.87,2.87,0,0,1-2.42,2.15l-6.6.84s-3.44,5.95-7.94,6.62l4.13-10.45Z" transform="translate(-4.16 -4.04)"/><path class="cls-13" d="M318.2,118.3c-.73,0,46.82,6.6,54.67,61l-24.68,3.79-5,41H274.39l-13.66-75.82s15.25-21.92,43.56-30Z" transform="translate(-4.16 -4.04)"/><line class="cls-8" x1="344.03" y1="179.01" x2="346.18" y2="155.28"/><path class="cls-9" d="M322.72,119.08V100.2H300.66v19.1a43.13,43.13,0,0,0-5.93,2.41L311.94,132l17.59-10.28A29,29,0,0,0,322.72,119.08Z" transform="translate(-4.16 -4.04)"/><path class="cls-14" d="M300.45,102.51s4,10.55,14.54,9.64c9.73-.84,8.18-15.46,8.18-15.46Z" transform="translate(-4.16 -4.04)"/><path class="cls-9" d="M290.83,88.47c-3.46,3.15-11.2-8.78-7.85-12.13s5.89,1.9,5.89,1.9l1.49,3.57,1.13,4.82.26,1.26Z" transform="translate(-4.16 -4.04)"/><path class="cls-15" d="M284.59,80.57s2.62-1.19,5,2.62" transform="translate(-4.16 -4.04)"/><path class="cls-9" d="M331.73,88.11c3.18,3.43,11.89-7.8,8.85-11.42s-6,1.4-6,1.4l-1.78,3.42-1.53,4.71-.37,1.23Z" transform="translate(-4.16 -4.04)"/><path class="cls-15" d="M338.61,80.76s-2.51-1.4-5.15,2.2" transform="translate(-4.16 -4.04)"/><path class="cls-16" d="M284.76,65c0,15.79,12,23.28,26.82,23.28S338.41,80.75,338.41,65s-12-26.54-26.83-26.54S284.76,49.16,284.76,65Z" transform="translate(-4.16 -4.04)"/><path class="cls-9" d="M288.41,66.06a108,108,0,0,0,2.73,24c1.33,5.81,5.09,9.87,10.4,13.14l1,.6a18.22,18.22,0,0,0,18.58.21h0c5.75-3.37,9.78-7.8,11-14a158.89,158.89,0,0,0,2.5-23.91s2.14-24.48-22.77-24S288.41,66.06,288.41,66.06Z" transform="translate(-4.16 -4.04)"/><path class="cls-17" d="M310,80v3.39a1.38,1.38,0,0,0,.11.57,1.5,1.5,0,0,0,1.79.83l1.55-.41" transform="translate(-4.16 -4.04)"/><path class="cls-14" d="M306,66.89,293.65,69.8s.56-3.16,5.63-4.31S306,66.89,306,66.89Z" transform="translate(-4.16 -4.04)"/><path class="cls-14" d="M317,66.89l12,2.91s-.54-3.16-5.43-4.31S317,66.89,317,66.89Z" transform="translate(-4.16 -4.04)"/><circle class="cls-14" cx="297.17" cy="71.97" r="2.09"/><path class="cls-14" d="M323.22,76a2.09,2.09,0,1,1-2.09-2.09A2.1,2.1,0,0,1,323.22,76Z" transform="translate(-4.16 -4.04)"/><path d="M303.42,88.76h16.1S312.38,97.46,303.42,88.76Z" transform="translate(-4.16 -4.04)"/><ellipse class="cls-18" cx="296.29" cy="72.79" rx="8.88" ry="8.9"/><ellipse class="cls-18" cx="318.11" cy="72.79" rx="8.88" ry="8.9"/><path class="cls-18" d="M309.33,76.82a2.89,2.89,0,0,1,4.06,0" transform="translate(-4.16 -4.04)"/><line class="cls-18" x1="287.41" y1="72.79" x2="284.61" y2="72.71"/><line class="cls-18" x1="326.99" y1="72.79" x2="329.8" y2="72.71"/><path class="cls-16" d="M334.29,74.17s-10-13.5-7.67-27.18a19.65,19.65,0,0,1,9.32,13.36C337.87,70,334.29,74.17,334.29,74.17Z" transform="translate(-4.16 -4.04)"/><path class="cls-16" d="M288.39,75.09s11.57-15.34,9.27-29a22.86,22.86,0,0,0-10,14.28C285.79,70,288.39,75.09,288.39,75.09Z" transform="translate(-4.16 -4.04)"/><path class="cls-16" d="M333.45,52.37S320.66,66.42,285.66,64c0,0,5.36-20.6,22.32-22.8C308,41.21,327.57,38.87,333.45,52.37Z" transform="translate(-4.16 -4.04)"/><ellipse class="cls-16" cx="328.4" cy="31.92" rx="16.71" ry="16.76"/><path class="cls-14" d="M128.57,221.13,97.44,217l.29-3.62-36.4,4.86S41.46,271.6,59.14,382.59H84.46L93.28,270h3.24l9.11,112.55H131C148.63,271.6,128.57,221.13,128.57,221.13Z" transform="translate(-4.16 -4.04)"/><path class="cls-19" d="M126.08,69.28a57.64,57.64,0,0,1-10.45-18.9c-3.07-8.73-13.15-5.18-13.15-5.18s-8.4-10.83-21-7.06-17,12.79-17.28,23.51S55.5,74,49,86.44c-11.43,21.89,7.81,40.33,42.84,35.21l0-.34a36.56,36.56,0,0,0,12.83,1.2C146.84,120,142.78,89,126.08,69.28Z" transform="translate(-4.16 -4.04)"/><path class="cls-9" d="M112.31,85.52c3.46,3.14,11.19-8.79,7.85-12.14s-5.89,1.91-5.89,1.91l-1.5,3.56-1.12,4.82-.27,1.26Z" transform="translate(-4.16 -4.04)"/><path class="cls-15" d="M118.54,77.61s-2.61-1.18-4.94,2.62" transform="translate(-4.16 -4.04)"/><path class="cls-9" d="M71.41,85.15c-3.19,3.43-11.9-7.8-8.85-11.42s6,1.4,6,1.4l1.79,3.42,1.53,4.71.37,1.24Z" transform="translate(-4.16 -4.04)"/><path class="cls-15" d="M64.53,77.8S67,76.4,69.67,80" transform="translate(-4.16 -4.04)"/><path class="cls-19" d="M118.37,62c0,15.79-12,23.28-26.82,23.28S64.73,77.79,64.73,62s12-26.54,26.82-26.54S118.37,46.2,118.37,62Z" transform="translate(-4.16 -4.04)"/><rect class="cls-9" x="76.25" y="93.21" width="22.07" height="28.65"/><path class="cls-14" d="M77.19,95.46s6.15,12.29,13.7,14.21a10.64,10.64,0,0,0,6.12-.36c2.85-1,6.45-5.26,7.07-10l.28-2.68S90.92,104,77.19,95.46Z" transform="translate(-4.16 -4.04)"/><path class="cls-9" d="M114.73,63.1a108.55,108.55,0,0,1-2.73,24c-1.34,5.81-5.09,9.88-10.4,13.15l-1,.59a18.22,18.22,0,0,1-18.58.21h0c-5.76-3.36-9.78-7.8-11-14a157.3,157.3,0,0,1-2.5-23.91s-2.15-24.48,22.77-24S114.73,63.1,114.73,63.1Z" transform="translate(-4.16 -4.04)"/><path class="cls-20" d="M89.89,78.39v2A1.35,1.35,0,0,0,90,81a1.5,1.5,0,0,0,1.79.83l1.55-.41" transform="translate(-4.16 -4.04)"/><path class="cls-14" d="M95.08,65.12l13.25,3.15s-.6-3.42-6-4.66S95.08,65.12,95.08,65.12Z" transform="translate(-4.16 -4.04)"/><path class="cls-14" d="M88.12,65.12,74.69,68.27s.61-3.42,6.1-4.66S88.12,65.12,88.12,65.12Z" transform="translate(-4.16 -4.04)"/><path class="cls-14" d="M83.31,73.37a2.09,2.09,0,1,1-2.09-2.08A2.1,2.1,0,0,1,83.31,73.37Z" transform="translate(-4.16 -4.04)"/><path class="cls-14" d="M103.11,73.37A2.09,2.09,0,1,1,101,71.29,2.1,2.1,0,0,1,103.11,73.37Z" transform="translate(-4.16 -4.04)"/><path d="M81.93,85.28h18.33s-1.3,5-9.61,5A9.71,9.71,0,0,1,81.93,85.28Z" transform="translate(-4.16 -4.04)"/><path class="cls-19" d="M68.85,71.21s10-13.5,7.66-27.18a19.68,19.68,0,0,0-9.32,13.36C65.26,67,68.85,71.21,68.85,71.21Z" transform="translate(-4.16 -4.04)"/><path class="cls-19" d="M114.74,70.76s-11.57-14-9.27-27.65a22.82,22.82,0,0,1,10,14.28C117.35,67,114.74,70.76,114.74,70.76Z" transform="translate(-4.16 -4.04)"/><path class="cls-19" d="M69.68,49.42s11.43,15.4,46.43,13c0,0-4-22-21-24.17C95.15,38.25,75.57,35.91,69.68,49.42Z" transform="translate(-4.16 -4.04)"/><path class="cls-9" d="M37.78,288.9c-.51.8,29.13-129.31,20.33-127.34-.8.18-16.21,1.61-18.51,6.28C33,181.38,28.2,287.91,28.2,287.91Z" transform="translate(-4.16 -4.04)"/><path class="cls-9" d="M28.2,287.91s-4.77,22.22,13.29,24.65a2.54,2.54,0,0,0,2.73-1.68l.05-.15a2.55,2.55,0,0,0-1.41-3.14c-2.94-1.32-7.51-4.66-5.24-12.23,0,0,2.61-.32,4.05,4.56a2.1,2.1,0,0,0,2.94,1.3h0a2.09,2.09,0,0,0,1.13-2.15c-.43-3.42-2.14-11.65-8.73-13.86Z" transform="translate(-4.16 -4.04)"/><path class="cls-9" d="M34.28,199.1s17.08,24.12,17.17,23.65,6-33.85,6-33.85l-20.72-9Z" transform="translate(-4.16 -4.04)"/><path class="cls-21" d="M81.73,121.18c.73,0-42.21.76-50.05,55.12l24.67,3.79,5,41h68.82l13.67-75.82s-9.72-16.43-38-24.48Z" transform="translate(-4.16 -4.04)"/><path class="cls-9" d="M60.74,127.75s6.07,8.07,30.93,8.07c24.63,0,30.93-8.5,30.93-8.5s-14.52-8.13-31.37-10.76A111.6,111.6,0,0,0,60.74,127.75Z" transform="translate(-4.16 -4.04)"/><polygon class="cls-13" points="141.05 295.91 141.11 404.32 194.59 404.32 198.71 295.91 141.05 295.91"/><polygon class="cls-13" points="257.18 295.91 257.12 404.32 203.63 404.32 199.53 295.91 257.18 295.91"/><rect class="cls-13" x="172.67" y="295.91" width="55.3" height="37.66"/><line class="cls-22" x1="180.39" y1="333.58" x2="218.53" y2="333.58"/><path class="cls-9" d="M295.12,205.35c3.32,36.73-.18,63.5.79,131.09L264,337.78l-4.76-126.52Z" transform="translate(-4.16 -4.04)"/><path class="cls-9" d="M263.17,234s19.77-1.81,33.28-10.75l-.36-7.87-32.93,4.5Z" transform="translate(-4.16 -4.04)"/><path class="cls-23" d="M231.46,120.77s62.78,15.84,74.16,95.75c0,0-30.73,13.36-61.53,7.61L251,197.4Z" transform="translate(-4.16 -4.04)"/><path class="cls-9" d="M43.91,154l46.75,55.36-14.31,40.4s-35.53-49.54-51.5-87.83Z" transform="translate(-4.16 -4.04)"/><path class="cls-9" d="M45.44,156S29,165.3,24.85,161.93c-7.3-5.87-13.33-27.39-13.33-27.39s30.7-11.61,30.41-11.16S45.44,156,45.44,156Z" transform="translate(-4.16 -4.04)"/><path class="cls-9" d="M45.44,156c-.29-1.66,6.09-19.54,8.28-26.24A3,3,0,0,0,51.38,126h0a3.4,3.4,0,0,0-3.79,1.56l-7.7,13.2Z" transform="translate(-4.16 -4.04)"/><path class="cls-9" d="M44.88,136.67,39.59,110.3a3.29,3.29,0,0,0-3.82-2.63h0a2.85,2.85,0,0,0-2.34,3.17l2.3,19.64Z" transform="translate(-4.16 -4.04)"/><path class="cls-9" d="M34.37,126.94l-7.18-18.83a3.29,3.29,0,0,0-4.08-2h0a2.85,2.85,0,0,0-1.88,3.38l5.33,21.76Z" transform="translate(-4.16 -4.04)"/><path class="cls-9" d="M26.65,132.5,17.57,114A3.61,3.61,0,0,0,13,112.22h0a3.15,3.15,0,0,0-1.62,4.17l7.24,17.47Z" transform="translate(-4.16 -4.04)"/><path class="cls-9" d="M11.52,134.54,4.4,123.2a2.56,2.56,0,0,1,1.24-3.42h0a2.9,2.9,0,0,1,3.56,1l9.38,13Z" transform="translate(-4.16 -4.04)"/><path class="cls-24" d="M43.44,134.69s-10.7-1.13-11.8,13.18" transform="translate(-4.16 -4.04)"/><path class="cls-9" d="M66.87,230.87s8.79,30.51,26.31,26.45S138,215.74,138,215.74l-6.11-64.07L82.72,212.36Z" transform="translate(-4.16 -4.04)"/><path class="cls-9" d="M98,193.51s16.6,25.11,30.76,34L138,215.74,102.25,188Z" transform="translate(-4.16 -4.04)"/><path class="cls-23" d="M170.62,119.39s-48.75,11-74.72,67.82c0,0,15.69,23.72,40.85,34.26l16.85-20.7Z" transform="translate(-4.16 -4.04)"/><path class="cls-23" d="M170.62,119.21a122,122,0,0,0-31,22.78l3.75,166.06h120L263,142.85S247.85,128,231.46,120.77C217.53,114.63,184.16,112.25,170.62,119.21Z" transform="translate(-4.16 -4.04)"/><path class="cls-22" d="M206.55,162.62h33.38a0,0,0,0,1,0,0V179.4a16.69,16.69,0,0,1-16.69,16.69h0a16.69,16.69,0,0,1-16.69-16.69V162.62A0,0,0,0,1,206.55,162.62Z"/><line class="cls-22" x1="259.01" y1="220.71" x2="260.57" y2="166.39"/><line class="cls-22" x1="137.29" y1="211.66" x2="134.7" y2="164.57"/><path class="cls-19" d="M172,58.56l-5-24.82c-.28-2-1.06-5.14-.1-8.07,1.58-4.85,7.41-14.16,17.36-9.9l2.15,9.83S176.09,27.69,172,41.25Z" transform="translate(-4.16 -4.04)"/><path class="cls-19" d="M183.55,20.9c-.19,3.26-3.06,17.52-13.15,22.72C170.4,43.62,161.57,24.61,183.55,20.9Z" transform="translate(-4.16 -4.04)"/><path class="cls-9" d="M218.94,114.64h0V72.5H180.2v42.14l-11.53,5.27s2.71,17.47,31.31,17.85,31.48-17,31.48-17Z" transform="translate(-4.16 -4.04)"/><path class="cls-19" d="M184.28,15.77s7.11-18.8,29-8.8c13.27,6.05,17,14.16,18.57,19.91a23.45,23.45,0,0,1,.59,6.7l-5.3,25L206.46,24l-20,1.59Z" transform="translate(-4.16 -4.04)"/><path class="cls-9" d="M227.17,58.56s2.61-4.17,8-2.12,3,15.17-5.13,16.84a6.39,6.39,0,0,1-5.17-1.36S226.85,62.23,227.17,58.56Z" transform="translate(-4.16 -4.04)"/><path class="cls-22" d="M234.1,61.07s-4.51-1.51-7.72,5.15" transform="translate(-4.16 -4.04)"/><path class="cls-9" d="M172,58.56s-2.61-4.17-8-2.12-2.95,15.17,5.13,16.84a6.39,6.39,0,0,0,5.17-1.36S172.34,62.23,172,58.56Z" transform="translate(-4.16 -4.04)"/><path class="cls-22" d="M165.1,61.07s4.51-1.51,7.71,5.15" transform="translate(-4.16 -4.04)"/><path class="cls-9" d="M227.71,46.11c0,7.91-.77,24.45-5.62,34.27-4.55,9.22-12.08,14.18-22,14.48S182.91,91.34,177,79.37s-5.61-33.11-5.61-33.11S171.41,18,199.25,18C228.58,18,227.71,46.11,227.71,46.11Z" transform="translate(-4.16 -4.04)"/><path class="cls-14" d="M180.49,85.27s3.25,16.51,17.57,18.4c16.49,2.19,20.88-18,20.88-18s-7.28,9.15-18.8,9.17A25.24,25.24,0,0,1,180.49,85.27Z" transform="translate(-4.16 -4.04)"/><path class="cls-22" d="M197.57,57.84v6.54a2.26,2.26,0,0,0,.15.79,2.11,2.11,0,0,0,2.51,1.17l2.16-.58" transform="translate(-4.16 -4.04)"/><path class="cls-14" d="M189.35,54.72a2.54,2.54,0,1,1-2.54-2.55A2.54,2.54,0,0,1,189.35,54.72Z" transform="translate(-4.16 -4.04)"/><path class="cls-14" d="M213.11,54.72a2.54,2.54,0,1,1-2.53-2.55A2.54,2.54,0,0,1,213.11,54.72Z" transform="translate(-4.16 -4.04)"/><path class="cls-14" d="M204.09,42.07l17,4.42s-.77-4.8-7.74-6.54S204.09,42.07,204.09,42.07Z" transform="translate(-4.16 -4.04)"/><path class="cls-14" d="M193.5,42.07l-17,4.42s.77-4.8,7.74-6.54S193.5,42.07,193.5,42.07Z" transform="translate(-4.16 -4.04)"/><path class="cls-22" d="M190.11,71s2.51,1.93,9.13,1.93A23,23,0,0,0,209,71" transform="translate(-4.16 -4.04)"/><ellipse class="cls-25" cx="181.97" cy="51.42" rx="10.77" ry="10.8"/><ellipse class="cls-25" cx="208.43" cy="51.42" rx="10.77" ry="10.8"/><path class="cls-25" d="M196.9,55.46s2.55-2.39,4.92,0" transform="translate(-4.16 -4.04)"/><line class="cls-25" x1="171.2" y1="51.42" x2="167.59" y2="51.33"/><line class="cls-25" x1="219.2" y1="51.42" x2="223.23" y2="51.36"/><path class="cls-19" d="M180.49,21.54S185.67,36.28,209,35.82C224.87,35.52,228.66,47,228.66,47s-2.76-25.73-3.49-25.49S201,15.28,201,15.28Z" transform="translate(-4.16 -4.04)"/></g></g></g></svg>