<svg xmlns="http://www.w3.org/2000/svg" xmlns:xlink="http://www.w3.org/1999/xlink" width="500" zoomAndPan="magnify" viewBox="0 0 375 374.999991" height="500" preserveAspectRatio="xMidYMid meet" version="1.0"><defs><clipPath id="id1"><path d="M 15.601562 15 L 161 15 L 161 325 L 15.601562 325 Z M 15.601562 15 " clip-rule="nonzero"/></clipPath></defs><rect x="-37.5" width="450" fill="#ffffff" y="-37.499999" height="449.999989" fill-opacity="1"/><rect x="-37.5" width="450" fill="#ffffff" y="-37.499999" height="449.999989" fill-opacity="1"/><rect x="-37.5" width="450" fill="#ffffff" y="-37.499999" height="449.999989" fill-opacity="1"/><path fill="#ffffff" d="M 215.453125 324.796875 C 214.742188 322.980469 213.800781 321.152344 212.871094 319.296875 C 212.875 319.03125 212.910156 318.773438 213.023438 318.570312 C 213.753906 317.257812 213.699219 316.769531 212.417969 315.910156 C 211.933594 315.589844 211.429688 315.300781 210.867188 314.976562 C 210.8125 314.835938 210.753906 314.699219 210.703125 314.558594 C 211.707031 314.207031 211.75 313.394531 211.558594 312.457031 C 211.351562 311.417969 211.160156 310.371094 210.996094 309.320312 C 210.960938 309.082031 211 308.761719 211.140625 308.582031 C 211.777344 307.746094 211.898438 306.832031 211.261719 306.039062 C 210.839844 305.519531 210.304688 305.257812 209.675781 305.28125 C 209.769531 304.597656 209.867188 303.917969 209.945312 303.230469 C 210.613281 302.484375 210.875 301.484375 210.535156 300.375 C 210.382812 299.878906 210.199219 299.394531 210.003906 298.914062 C 209.859375 297.171875 209.550781 295.429688 209.207031 293.730469 C 208.761719 291.523438 208.269531 289.324219 207.765625 287.125 C 207.445312 284.101562 207.128906 281.078125 206.792969 278.054688 C 206.726562 277.453125 206.671875 276.757812 206.34375 276.296875 C 205.074219 274.515625 205.449219 272.503906 205.617188 270.625 C 205.734375 269.308594 205.488281 268.441406 204.449219 267.8125 C 203.640625 267.324219 203.738281 266.835938 204.078125 266.09375 C 204.363281 265.472656 204.636719 264.652344 204.460938 264.050781 C 204.070312 262.710938 203.570312 261.332031 202.792969 260.191406 C 201.984375 259.011719 201.238281 257.929688 200.996094 256.457031 C 200.863281 255.648438 200.667969 254.980469 201.027344 254.175781 C 201.746094 252.578125 201.96875 250.871094 201.765625 249.132812 C 201.648438 248.144531 201.316406 247.175781 201.273438 246.191406 C 201.21875 244.835938 201.117188 243.414062 201.457031 242.128906 C 201.867188 240.578125 201.980469 239.109375 201.429688 237.648438 C 200.800781 235.992188 200.535156 234.363281 200.960938 232.613281 C 201.109375 232.003906 201.117188 231.292969 200.957031 230.691406 C 200.519531 229.066406 199.953125 227.476562 199.445312 225.875 C 199.398438 225.726562 199.285156 225.511719 199.339844 225.441406 C 200.03125 224.566406 199.277344 223.792969 199.207031 222.972656 C 199.089844 221.648438 198.925781 220.316406 198.945312 218.992188 C 198.972656 217.285156 199.421875 215.554688 199.226562 213.886719 C 198.898438 211.074219 198.195312 208.308594 197.679688 205.515625 C 197.191406 202.890625 196.878906 200.226562 196.246094 197.636719 C 195.691406 195.359375 195.125 192.972656 193.96875 190.980469 C 192.976562 189.285156 192.945312 187.445312 192.339844 185.722656 C 191.71875 183.945312 191.867188 181.90625 191.617188 179.992188 C 191.558594 179.53125 191.289062 179.082031 191.054688 178.667969 C 190.855469 178.316406 190.566406 178.023438 190.316406 177.703125 C 190.449219 177.695312 190.585938 177.683594 190.71875 177.671875 C 194.304688 171.109375 194.15625 163.890625 194.390625 156.582031 C 196.496094 155.308594 198.878906 153.925781 201.191406 152.4375 C 202.042969 151.886719 202.820312 151.15625 203.472656 150.375 C 203.78125 150.003906 203.972656 149.191406 203.777344 148.808594 C 203.03125 147.359375 202.121094 145.992188 201.234375 144.621094 C 200.515625 143.507812 199.621094 142.496094 199.007812 141.332031 C 197.34375 138.164062 195.625 135.007812 194.230469 131.71875 C 192.902344 128.578125 190.121094 127.445312 187.40625 126.222656 C 186.078125 125.621094 184.429688 125.742188 183.082031 125.175781 C 181.535156 124.527344 180.167969 123.460938 178.699219 122.609375 C 177.425781 121.875 177.28125 120.570312 177.238281 119.375 C 177.191406 117.90625 177.5625 116.429688 177.59375 114.953125 C 177.640625 112.785156 178.410156 111.09375 180.148438 109.710938 C 182.121094 108.136719 183.96875 106.355469 184.894531 103.929688 C 185.355469 103.296875 185.761719 102.589844 186.125 101.863281 C 186.128906 101.925781 186.128906 101.988281 186.128906 102.050781 C 186.179688 102.050781 186.261719 102.074219 186.324219 102.046875 C 186.425781 102 186.511719 101.917969 186.605469 101.851562 C 187.988281 100.859375 188.574219 99.402344 189.121094 97.855469 C 189.777344 96.003906 190.449219 94.183594 190.273438 92.175781 C 190.191406 91.269531 190.050781 90.316406 189.0625 90.011719 C 188.519531 89.84375 188.269531 89.566406 188.152344 89.222656 C 188.136719 88.5 188.121094 87.78125 188.121094 87.066406 C 188.164062 86.238281 188.203125 85.40625 188.125 84.585938 C 187.882812 82.078125 188.089844 79.648438 188.664062 77.195312 C 188.917969 76.101562 188.664062 74.890625 188.660156 73.730469 C 188.65625 73.335938 188.707031 72.945312 188.746094 72.390625 C 188.25 72.15625 187.742188 71.695312 188.332031 70.859375 C 187.070312 69.75 185.890625 68.707031 184.609375 67.578125 C 184.621094 67.519531 184.667969 67.242188 184.695312 67.074219 C 184.167969 66.671875 183.753906 66.347656 183.335938 66.035156 C 182.890625 65.699219 182.40625 65.410156 181.996094 65.039062 C 181.140625 64.257812 180.4375 63.222656 179.457031 62.695312 C 178.332031 62.09375 176.96875 61.949219 175.722656 61.566406 C 175.359375 61.453125 175 61.25 174.703125 61.011719 C 173.578125 60.105469 172.304688 59.597656 170.992188 60.335938 C 169.449219 61.203125 167.878906 60.78125 166.335938 60.695312 C 165.414062 60.644531 164.640625 60.636719 163.765625 61.039062 C 163.179688 61.308594 162.367188 61.089844 161.65625 61.089844 C 160.957031 61.222656 159.855469 61.363281 159.597656 61.90625 C 159.039062 63.082031 158.28125 62.855469 157.335938 62.6875 C 157.292969 62.929688 157.25 63.167969 157.207031 63.410156 C 157.175781 63.300781 157.140625 63.195312 157.109375 63.085938 C 156.496094 63.226562 155.851562 63.285156 155.285156 63.53125 C 154.40625 63.914062 153.585938 64.425781 152.78125 64.863281 C 152.925781 64.976562 153.179688 65.167969 153.433594 65.359375 C 153.390625 65.472656 153.34375 65.582031 153.300781 65.695312 C 152.808594 65.53125 152.316406 65.367188 151.746094 65.175781 C 151.902344 65.53125 152.058594 65.828125 152.160156 66.140625 C 152.394531 66.847656 152.171875 67.332031 151.429688 67.550781 C 150.488281 67.828125 149.554688 68.125 148.617188 68.414062 C 148.59375 68.554688 148.570312 68.691406 148.546875 68.832031 C 148.96875 69.042969 149.390625 69.257812 149.972656 69.550781 C 149.429688 69.664062 148.976562 69.757812 148.492188 69.863281 C 147.941406 70.710938 149.515625 72.226562 147.363281 72.609375 C 147.917969 72.835938 148.191406 72.949219 148.460938 73.058594 C 147.542969 74.121094 147.027344 75.179688 147.886719 76.519531 C 148.050781 76.773438 147.878906 77.25 147.839844 77.621094 C 147.804688 77.953125 147.597656 78.339844 147.707031 78.605469 C 148.527344 80.578125 148.300781 82.75 149.007812 84.769531 C 149.472656 86.097656 149.421875 87.613281 149.519531 89.054688 C 149.542969 89.398438 149.347656 89.910156 149.078125 90.097656 C 147.539062 91.179688 147.132812 92.800781 147.570312 94.367188 C 148.179688 96.554688 149.101562 98.6875 150.136719 100.714844 C 150.941406 102.289062 152.789062 102.820312 154.042969 101.96875 C 155.03125 101.296875 155.53125 101.917969 155.914062 102.492188 C 156.328125 103.105469 156.546875 103.886719 156.691406 104.628906 C 157.011719 106.246094 157.277344 107.875 157.476562 109.511719 C 157.644531 110.871094 157.804688 112.25 157.757812 113.613281 C 157.71875 114.820312 156.445312 115.730469 155.785156 115.15625 C 155.117188 114.574219 154.601562 113.808594 154.042969 113.105469 C 152.941406 111.707031 152.84375 109.464844 150.605469 109.003906 C 150.464844 108.976562 150.359375 108.730469 150.257812 108.570312 C 149.570312 107.488281 148.875 106.410156 148.207031 105.316406 C 148.074219 105.097656 147.949219 104.804688 147.980469 104.566406 C 148.269531 102.464844 146.914062 100.886719 146.171875 99.15625 C 145 96.449219 143.449219 93.90625 142.183594 91.234375 C 141.351562 89.480469 140.785156 87.597656 140.011719 85.8125 C 138.625 82.632812 137.167969 79.484375 135.742188 76.320312 C 135.695312 76.214844 135.675781 76.097656 135.628906 75.992188 C 134.792969 74.152344 134.074219 72.246094 133.09375 70.480469 C 131.074219 66.835938 128.839844 63.308594 126.839844 59.652344 C 125.15625 56.570312 123.59375 53.410156 122.136719 50.210938 C 121.339844 48.464844 120.238281 46.722656 120.546875 44.667969 C 120.859375 42.597656 121.308594 40.546875 121.707031 38.488281 C 121.90625 37.445312 122.175781 36.40625 122.324219 35.355469 C 122.542969 33.796875 122.253906 32.324219 121.503906 30.917969 C 121.273438 30.484375 121.210938 30.175781 121.308594 29.957031 C 120.582031 29.078125 120.03125 28.042969 119.714844 26.941406 C 119.28125 26.777344 118.839844 26.632812 118.398438 26.503906 C 118.351562 26.488281 118.25 26.460938 118.121094 26.425781 C 117.964844 26.40625 117.34375 26.273438 117.148438 26.253906 C 116.953125 26.234375 116.757812 26.21875 116.5625 26.207031 C 116.402344 26.472656 116.203125 26.726562 115.953125 26.96875 C 115.507812 27.398438 115.320312 27.691406 114.683594 27.335938 C 113.652344 26.765625 112.714844 26.84375 112.003906 27.957031 C 111.878906 28.148438 111.390625 28.28125 111.15625 28.199219 C 109.492188 27.632812 108.996094 27.917969 108.53125 29.664062 C 108.449219 29.96875 108.050781 30.351562 107.746094 30.410156 C 106.097656 30.730469 105.648438 31.082031 105.835938 32.734375 C 106.0625 34.699219 106.496094 36.640625 106.910156 38.582031 C 107.214844 40.003906 107.464844 41.480469 108.042969 42.800781 C 108.769531 44.453125 109.871094 45.910156 110.414062 47.703125 C 111.035156 49.738281 112.0625 51.644531 112.804688 53.644531 C 114.722656 58.800781 116.367188 64.070312 118.527344 69.117188 C 120.371094 73.425781 122.769531 77.492188 124.9375 81.660156 C 125.632812 82.992188 127.113281 84.0625 126.941406 85.65625 C 126.765625 87.257812 127.695312 88.355469 128.109375 89.683594 C 128.621094 91.324219 129.222656 92.9375 129.683594 94.59375 C 130.742188 98.378906 132.46875 102.003906 132.066406 106.140625 C 131.839844 108.445312 132.167969 110.800781 132.183594 113.132812 C 132.191406 114.816406 132.058594 116.5 132.050781 118.179688 C 132.039062 119.492188 132.453125 120.628906 133.5 121.539062 C 134.417969 122.335938 135.269531 123.191406 135.46875 124.53125 C 135.683594 125.960938 135.917969 127.425781 136.425781 128.769531 C 137.300781 131.082031 137.199219 133.40625 137.199219 135.816406 C 137.195312 138.382812 137.820312 140.949219 138.160156 143.515625 C 138.269531 144.34375 138.484375 145.191406 138.40625 146.003906 C 138.246094 147.597656 137.875 149.167969 137.660156 150.757812 C 137.210938 154.121094 136.789062 157.488281 136.382812 160.859375 C 136.261719 161.882812 136.328125 162.9375 136.125 163.941406 C 135.949219 164.792969 135.972656 165.710938 135.859375 166.585938 C 135.890625 166.789062 135.921875 166.988281 135.953125 167.191406 C 136.207031 168.746094 136.472656 170.300781 136.714844 171.855469 C 136.960938 172.570312 137.171875 173.292969 137.339844 174.023438 C 137.769531 175.886719 137.796875 177.667969 137.613281 179.429688 C 137.671875 179.820312 137.714844 180.210938 137.726562 180.605469 C 137.789062 182.726562 137.609375 184.828125 137.53125 186.949219 C 137.523438 187.070312 137.539062 187.632812 137.546875 188.152344 C 138.058594 189.515625 138.503906 190.902344 138.839844 192.320312 C 138.847656 192.351562 138.859375 192.386719 138.867188 192.417969 C 140.15625 193.53125 141.101562 195.027344 141.390625 196.695312 C 141.707031 198.503906 142.011719 200.34375 142 202.179688 C 142.117188 202.511719 142.21875 202.84375 142.285156 203.167969 C 142.679688 205.128906 142.207031 206.855469 141.339844 208.550781 C 141.359375 209.449219 141.132812 210.371094 141.253906 211.25 C 141.519531 213.132812 140.828125 214.667969 139.902344 216.207031 C 139.480469 216.90625 139.09375 217.753906 139.066406 218.542969 C 138.960938 221.972656 139.695312 225.5 137.667969 228.664062 C 137.589844 228.785156 137.535156 228.957031 137.542969 229.101562 C 137.6875 231.152344 137.15625 233.074219 136.433594 234.957031 C 136.113281 235.785156 135.746094 236.597656 135.347656 237.386719 C 135.042969 237.992188 134.457031 238.515625 134.34375 239.140625 C 134.015625 240.929688 133.914062 242.761719 133.625 244.558594 C 133.53125 245.140625 133.226562 245.753906 132.851562 246.210938 C 131.625 247.691406 130.433594 249.167969 130.003906 251.109375 C 129.613281 252.859375 129.222656 254.609375 128.75 256.335938 C 128.214844 258.269531 127.992188 260.265625 126.238281 261.757812 C 124.78125 262.996094 123.734375 264.714844 122.507812 266.222656 C 121.453125 267.515625 120.773438 268.894531 121.21875 270.660156 C 121.34375 271.15625 121.113281 271.765625 120.964844 272.300781 C 120.800781 272.882812 120.460938 273.421875 120.339844 274.011719 C 120.15625 274.871094 119.695312 275.199219 118.832031 275.273438 C 118.460938 275.304688 117.863281 275.703125 117.816406 276.003906 C 117.519531 277.898438 117.410156 279.734375 116.203125 281.46875 C 115.195312 282.917969 114.882812 284.84375 114.242188 286.550781 C 113.351562 288.90625 112.472656 291.265625 111.527344 293.597656 C 110.59375 295.890625 109.453125 298.109375 108.652344 300.445312 C 107.847656 302.800781 107.230469 305.195312 105.597656 307.179688 C 105.320312 307.511719 105.242188 308.140625 105.308594 308.597656 C 105.542969 310.273438 105.179688 311.535156 103.457031 312.230469 C 102.59375 312.582031 102.394531 313.28125 103.027344 314.085938 C 103.707031 314.945312 104.375 315.8125 105.050781 316.679688 C 103.464844 317.691406 102.902344 319.710938 103.46875 321.617188 C 102.824219 322.726562 102.09375 323.695312 101.105469 324.605469 C 99.894531 325.722656 98.597656 326.621094 97.726562 328.074219 C 95.546875 331.703125 97.125 336.21875 97.226562 340.195312 C 97.265625 341.621094 97.191406 342.988281 97.230469 344.292969 C 96.597656 345.710938 96.542969 347.394531 97.476562 348.664062 C 97.953125 349.304688 98.417969 349.925781 98.929688 350.511719 C 98.914062 350.625 98.902344 350.746094 98.886719 350.875 C 101.023438 353.167969 102.714844 354.171875 105.191406 354.316406 C 105.390625 354.328125 105.585938 354.339844 105.785156 354.351562 C 107.039062 354.863281 108.359375 355.21875 109.753906 355.375 C 112.027344 355.632812 114.160156 355.242188 116 354.382812 C 118.230469 353.949219 120.300781 353.074219 121.507812 350.890625 C 122.359375 349.355469 122.417969 347.957031 122.027344 346.660156 C 122.304688 345.195312 122.289062 343.621094 121.910156 342 C 121.265625 339.25 119.851562 336.734375 119.089844 334.015625 C 119.113281 333.761719 119.128906 333.507812 119.128906 333.253906 C 119.125 331.121094 118.851562 328.984375 118.691406 326.871094 C 120.378906 328.03125 120.882812 327.980469 122.203125 326.230469 C 123.316406 324.757812 124.304688 323.199219 124.0625 321.203125 C 124.027344 320.941406 124.019531 320.640625 124.113281 320.40625 C 124.773438 318.71875 123.992188 317.558594 122.789062 316.503906 C 121.539062 315.410156 121.632812 314.152344 122.933594 313.066406 C 123.363281 312.707031 123.753906 312.242188 124.003906 311.742188 C 125.59375 308.574219 127.167969 305.390625 128.703125 302.191406 C 130.136719 299.199219 131.554688 296.195312 132.902344 293.167969 C 133.296875 292.285156 133.625 291.292969 133.640625 290.34375 C 133.675781 288.136719 134.535156 286.433594 136.300781 285.167969 C 137.417969 284.363281 138.3125 283.429688 138.652344 282.03125 C 138.847656 281.226562 139.332031 280.6875 140.167969 280.328125 C 142.191406 279.457031 143.765625 278.054688 144.714844 276.003906 C 145.691406 273.890625 146.617188 271.742188 147.761719 269.722656 C 149.757812 266.207031 151.855469 262.742188 154.003906 259.316406 C 155.75 256.535156 157.644531 253.847656 159.453125 251.105469 C 161.488281 248.015625 163.46875 244.886719 165.550781 241.828125 C 165.921875 241.285156 166.636719 240.820312 167.277344 240.648438 C 168.710938 240.269531 170.207031 240.148438 171.65625 239.820312 C 172.277344 239.679688 172.585938 239.808594 172.808594 240.371094 C 174 243.378906 175.269531 246.359375 176.394531 249.394531 C 177.574219 252.574219 178.644531 255.796875 179.714844 259.019531 C 180.492188 261.375 181.289062 263.730469 181.890625 266.132812 C 182.316406 267.84375 182.710938 269.511719 183.738281 271 C 184.335938 271.867188 184.691406 272.894531 185.203125 273.820312 C 185.558594 274.46875 185.871094 275.21875 186.417969 275.65625 C 187.636719 276.640625 187.722656 276.96875 187.152344 278.480469 C 186.925781 279.078125 187.09375 279.839844 187.148438 280.519531 C 187.171875 280.847656 187.433594 281.160156 187.453125 281.484375 C 187.539062 283 187.582031 284.523438 187.636719 286.042969 C 187.722656 288.703125 187.832031 291.367188 187.886719 294.03125 C 187.933594 296.457031 188.75 298.691406 189.664062 300.863281 C 190.074219 301.828125 190.847656 302.769531 191.691406 303.398438 C 193.035156 304.398438 193.199219 304.714844 192.917969 306.324219 C 192.609375 308.097656 192.566406 309.898438 193.890625 311.410156 C 194.050781 311.59375 194.144531 311.976562 194.074219 312.207031 C 193.589844 313.828125 193.050781 315.433594 193.886719 317.070312 C 193.046875 322.910156 191.808594 328.726562 192.253906 334.640625 C 192.597656 339.226562 193.722656 343.28125 198.695312 344.617188 C 202.621094 345.675781 206.914062 345.113281 210.578125 343.453125 C 212.5625 342.550781 214.085938 341.371094 215.164062 339.871094 C 216.523438 338.773438 216.972656 337.984375 216.644531 336.757812 C 216.863281 335.988281 217.011719 335.167969 217.089844 334.28125 C 217.367188 331.070312 216.613281 327.777344 215.453125 324.796875 Z M 215.453125 324.796875 " fill-opacity="1" fill-rule="nonzero"/><g clip-path="url(#id1)"><path fill="#ffffff" d="M 80.511719 144.574219 C 80.511719 144.574219 81.453125 146.511719 81.101562 146.851562 C 80.753906 147.191406 80.75 148.628906 80.988281 149.066406 C 81.226562 149.503906 82.300781 150.222656 82.296875 150.722656 C 82.296875 151.222656 82.441406 151.496094 81.738281 152.054688 C 81.03125 152.609375 80.242188 152.9375 80.3125 154.167969 C 80.378906 155.398438 80.652344 156.449219 80.507812 156.863281 C 80.363281 157.273438 80.511719 157.113281 79.625 158.027344 C 78.738281 158.941406 78.585938 158.359375 77.597656 159.609375 C 76.609375 160.863281 75.867188 161.367188 75.40625 162.484375 C 74.945312 163.601562 73.796875 164.710938 73.601562 165.882812 C 73.40625 167.058594 73.027344 167.28125 73.109375 168.320312 C 73.191406 169.359375 73.335938 171.128906 73.5625 171.757812 C 73.785156 172.386719 74.902344 172.660156 74.113281 173.921875 C 73.324219 175.1875 71.773438 177.398438 70.4375 178.988281 C 69.101562 180.582031 66.792969 183.488281 66.582031 184.351562 C 66.367188 185.21875 63.898438 189.910156 63.375 194.164062 C 62.855469 198.414062 63.925781 204.003906 63.925781 204.003906 C 63.925781 204.003906 62.210938 200.515625 58.542969 202.023438 C 54.875 203.535156 50.925781 206.613281 46.421875 209.710938 C 41.914062 212.808594 29.957031 221.136719 27.464844 226.210938 C 24.96875 231.285156 25.613281 236.671875 28.34375 238.773438 C 31.070312 240.875 35.667969 239.8125 38.601562 238.117188 C 41.535156 236.425781 45.265625 233.714844 47.320312 233.933594 C 49.375 234.148438 50.710938 235.925781 52.328125 238.316406 C 53.945312 240.703125 56.71875 242.734375 58.015625 241.960938 C 59.316406 241.1875 58.019531 236.90625 56.882812 235.890625 C 55.746094 234.875 54.273438 232.570312 54.109375 231.929688 C 53.941406 231.285156 54.640625 230.855469 54.640625 230.855469 C 54.640625 230.855469 56.339844 230.417969 56.78125 230.675781 C 57.222656 230.9375 58.6875 232.742188 59.851562 233.375 C 61.015625 234.011719 63.757812 234.738281 65.109375 234.886719 C 66.464844 235.039062 69.96875 235.066406 70.863281 235.148438 C 71.757812 235.230469 73.664062 235.109375 73.664062 235.109375 L 77.808594 236.894531 L 79.363281 245.554688 C 79.363281 245.554688 76.738281 248.914062 76.660156 250.058594 C 76.582031 251.199219 76.523438 256.765625 76.523438 256.765625 C 76.523438 256.765625 75.253906 257.65625 75.109375 257.820312 C 74.964844 257.980469 74.5625 257.398438 73.464844 257.496094 C 72.363281 257.59375 71.179688 258.335938 71.179688 258.335938 C 71.179688 258.335938 66.660156 259.191406 64 260.253906 C 61.339844 261.3125 51.871094 266.941406 48.46875 268.757812 C 45.066406 270.570312 39.5625 271.992188 37.238281 272.65625 C 34.910156 273.320312 33.09375 275.222656 33.09375 275.222656 C 33.09375 275.222656 29.507812 276.085938 27.75 276.042969 C 25.988281 276 21.367188 275.507812 18.679688 276.949219 C 15.996094 278.394531 15.613281 282.234375 16.265625 286.683594 C 16.917969 291.128906 18.019531 298.769531 18.695312 302.585938 C 19.375 306.402344 21.785156 318.378906 23.984375 321.804688 C 26.183594 325.230469 28.910156 325.398438 32.660156 323.246094 C 36.414062 321.089844 33.183594 313.191406 33.140625 311.582031 C 33.097656 309.96875 34.636719 308.199219 34.730469 306.867188 C 34.820312 305.53125 35.921875 303.75 35.921875 303.75 C 35.921875 303.75 36.429688 303.058594 38.359375 302.558594 C 40.292969 302.058594 42.042969 301.355469 43.429688 300.4375 C 44.816406 299.519531 46.824219 299.3125 48.75 298.066406 C 50.671875 296.820312 50.691406 295.195312 48.964844 293.832031 C 47.238281 292.46875 45.363281 292.703125 45.363281 292.703125 C 45.363281 292.703125 46.820312 291.578125 47.988281 291.027344 C 49.15625 290.476562 54.363281 288.632812 55.410156 287.859375 C 56.460938 287.089844 58.648438 287.335938 61.269531 286.847656 C 63.886719 286.355469 68.625 282.699219 70.605469 281.191406 C 72.589844 279.679688 75.71875 278.746094 78.382812 278.183594 C 81.046875 277.621094 85.402344 277.804688 87.800781 277.183594 C 90.203125 276.566406 93.835938 272.757812 95.886719 270.542969 C 97.9375 268.328125 99.335938 267.46875 99.851562 266.085938 C 100.371094 264.707031 101.5625 261.589844 101.925781 257.441406 C 102.285156 253.292969 103.21875 248.6875 103.273438 248.421875 C 103.328125 248.15625 104.605469 244.398438 104.605469 244.398438 L 104.714844 241.6875 C 104.714844 241.6875 110.886719 239.96875 114.804688 238.457031 C 118.722656 236.945312 120.078125 233.976562 119.296875 229.996094 C 118.519531 226.019531 117.4375 222.804688 115.558594 219.171875 C 113.683594 215.539062 112.121094 212.886719 111.40625 211.574219 C 110.691406 210.261719 111.160156 208.207031 110.011719 207.632812 C 108.863281 207.054688 107.496094 204.914062 107.496094 204.914062 C 107.496094 204.914062 108.566406 203.015625 109.375 201.558594 C 110.183594 200.101562 110.464844 198.28125 110.046875 197.640625 C 109.632812 197 108.363281 194.269531 108.363281 194.269531 C 108.363281 194.269531 110.761719 189.785156 111.277344 188.402344 C 111.792969 187.019531 112.304688 186.578125 112.304688 186.578125 C 112.304688 186.578125 116.5 184.933594 118.511719 183.539062 C 120.523438 182.144531 121.820312 181.125 120.136719 175.820312 C 120.136719 175.820312 120.710938 174.425781 121.128906 173.382812 C 121.542969 172.335938 123.449219 168.851562 125.203125 165.964844 C 126.953125 163.082031 127.523438 159.5 127.222656 158.332031 C 126.917969 157.164062 127 156.269531 127.140625 153.675781 C 127.28125 151.082031 128.164062 147.734375 127.074219 143.523438 C 125.984375 139.3125 125.636719 132.914062 124.988281 128.714844 C 124.339844 124.519531 124.035156 119.730469 122.835938 114.613281 C 122.835938 114.613281 125.234375 108.441406 126.753906 106.113281 C 128.277344 103.789062 130.546875 101.457031 131.578125 100.378906 C 132.609375 99.300781 130.964844 97.292969 130.09375 94.648438 C 129.222656 92.003906 127.109375 88.183594 127.109375 88.183594 C 127.109375 88.183594 131.238281 80.253906 133.542969 77.101562 C 135.851562 73.945312 138.679688 66.789062 140.183594 64.15625 C 141.6875 61.523438 143.273438 52.441406 145.230469 46.257812 C 147.1875 40.078125 150.738281 36.414062 152.164062 35.171875 C 153.589844 33.929688 156.730469 32.058594 158.179688 30.4375 C 159.636719 28.8125 159.722656 27.230469 160.027344 26.46875 C 160.328125 25.703125 161.304688 22.957031 160.402344 22.378906 C 160.402344 22.378906 161.414062 22.179688 160.742188 20.542969 C 160.066406 18.90625 159.917969 18.324219 158.941406 17.453125 C 157.964844 16.582031 157.015625 16.765625 157.015625 16.765625 C 157.015625 16.765625 156.757812 15.769531 154.488281 15.921875 C 154.488281 15.921875 151.660156 14.65625 150.484375 16.144531 C 150.484375 16.144531 147.988281 15.664062 146.507812 17.667969 C 145.03125 19.671875 144.027344 22.800781 143.9375 24.382812 C 143.847656 25.96875 143.644531 29.761719 143.644531 29.761719 C 143.644531 29.761719 139.277344 38.9375 137.054688 41.695312 C 134.835938 44.453125 130.484375 52.5 129.167969 54.648438 C 127.851562 56.800781 125.679688 60.230469 124.683594 64.105469 C 123.691406 67.980469 121.609375 73.695312 121.609375 73.695312 C 121.609375 73.695312 120.976562 69.804688 120.085938 68.289062 C 119.195312 66.773438 118.21875 65.902344 118.171875 65.726562 C 118.128906 65.550781 118.578125 62.9375 116.453125 61.492188 C 114.328125 60.042969 112.019531 59.082031 112.019531 59.082031 C 112.019531 59.082031 111.152344 56.933594 108.875 56.585938 C 106.601562 56.238281 103.042969 56.96875 103.042969 56.96875 C 103.042969 56.96875 99.40625 54.976562 97.496094 56.28125 C 97.496094 56.28125 95.507812 53.675781 93.371094 54.105469 C 91.234375 54.53125 87.457031 57.066406 87.457031 57.066406 C 87.457031 57.066406 87.347656 56.160156 86.261719 55.816406 C 85.171875 55.472656 85.429688 52.851562 83.878906 53.125 C 82.324219 53.402344 80.800781 55.230469 80.800781 55.230469 C 80.800781 55.230469 77.941406 53.351562 76.570312 54.078125 C 75.195312 54.808594 73.90625 56.824219 73.90625 56.824219 C 73.90625 56.824219 68.1875 58.613281 67.328125 62.765625 C 66.46875 66.917969 66.882812 70.929688 66.882812 70.929688 C 66.882812 70.929688 64.757812 73.101562 63.476562 77.546875 C 62.191406 81.996094 65.183594 84.15625 65.183594 84.15625 C 65.183594 84.15625 63.980469 87.710938 64.109375 88.925781 C 64.234375 90.140625 65.320312 91.917969 65.320312 91.917969 C 65.320312 91.917969 70.046875 98.121094 70.839844 99.972656 C 71.632812 101.828125 73.175781 100.554688 73.175781 100.554688 C 73.175781 100.554688 74.019531 103.332031 74.308594 104.445312 C 74.59375 105.554688 73.839844 108.183594 74.714844 109.390625 C 75.589844 110.601562 82.5625 109.796875 82.867188 109.53125 C 83.175781 109.265625 80.769531 111.320312 81.757812 112 C 82.746094 112.679688 83.519531 113.730469 83.519531 113.730469 C 83.519531 113.730469 82.238281 115.058594 79.445312 115.84375 C 76.648438 116.625 75.300781 116.726562 73.6875 118.453125 C 72.074219 120.179688 70.640625 120.425781 68.839844 120.953125 C 67.039062 121.480469 63.40625 123.605469 62.703125 125.21875 C 61.996094 126.835938 57.363281 130.652344 56.441406 130.953125 C 55.523438 131.253906 51.933594 131.621094 50.726562 132.992188 C 49.519531 134.367188 48.195312 137.203125 48.195312 137.453125 C 48.199219 137.703125 44.945312 139.851562 43.726562 141.414062 C 42.507812 142.976562 40.289062 146.230469 41.816406 149.707031 C 43.339844 153.179688 45.886719 154.582031 47.824219 156.761719 C 49.761719 158.945312 51.484375 159.808594 51.484375 159.808594 C 51.484375 159.808594 49.785156 161.433594 49.824219 162.796875 C 49.863281 164.15625 49.550781 165.359375 49.484375 166.066406 C 49.414062 166.769531 50.542969 168.222656 50.808594 168.53125 C 51.074219 168.835938 51.976562 171.597656 53.644531 171.039062 C 55.3125 170.484375 56.484375 170.433594 57.066406 170.03125 C 57.648438 169.632812 58.007812 168.355469 58.007812 168.355469 C 58.007812 168.355469 59.117188 167.816406 59.789062 167.769531 C 60.464844 167.71875 62.34375 167.980469 62.570312 166.925781 C 62.796875 165.867188 62.492188 164.699219 62.492188 164.699219 C 62.492188 164.699219 63.734375 164.191406 64.183594 163.265625 C 64.628906 162.339844 64.203125 160.453125 64.203125 160.453125 C 64.203125 160.453125 65.671875 159.136719 65.363281 157.21875 C 65.054688 155.304688 61.675781 152.371094 59.695312 150.511719 C 57.714844 148.652344 55.929688 147.304688 56.4375 146.613281 C 56.945312 145.921875 58.425781 145.851562 58.425781 145.851562 C 58.425781 145.851562 64.390625 150.796875 65.222656 150.644531 C 66.058594 150.492188 69.8125 147.148438 69.8125 147.148438 C 69.8125 147.148438 72.105469 147.554688 73.625 146.914062 C 75.144531 146.273438 76.933594 144.5 78.03125 144.152344 C 79.128906 143.808594 80.511719 144.574219 80.511719 144.574219 Z M 80.511719 144.574219 " fill-opacity="1" fill-rule="nonzero"/></g><path fill="#ffffff" d="M 343.917969 271.382812 C 342.726562 270.144531 341.246094 268.832031 340.828125 267.300781 C 340.394531 265.703125 341.148438 263.800781 341.273438 262.027344 C 341.472656 259.164062 342.726562 256.082031 339.734375 253.796875 C 339.527344 253.640625 339.46875 253.292969 339.324219 253.042969 C 336.515625 248.210938 336.160156 242.695312 335.09375 237.40625 C 334.082031 232.371094 333.457031 227.257812 332.714844 222.171875 C 332.375 219.824219 332.246094 217.445312 331.878906 215.101562 C 331.453125 212.402344 330.910156 209.71875 330.347656 207.042969 C 329.933594 205.078125 329.355469 203.152344 328.972656 201.183594 C 328.894531 200.800781 329.257812 200.175781 329.605469 199.894531 C 332.988281 197.1875 332.613281 193.640625 332.023438 189.960938 C 331.890625 189.128906 332.074219 187.980469 332.582031 187.355469 C 337.453125 181.359375 341.792969 175.050781 344.941406 167.941406 C 345.421875 166.851562 346.808594 166.171875 347.730469 165.257812 C 348.214844 164.773438 348.839844 164.25 348.992188 163.644531 C 350.105469 159.203125 347.5 155.457031 346.566406 151.390625 C 346.289062 150.171875 345.960938 148.957031 345.625 147.75 C 344.914062 145.21875 344.386719 142.605469 343.410156 140.179688 C 341.96875 136.605469 339.722656 133.292969 339.667969 129.292969 C 339.632812 126.40625 338.867188 123.875 337.160156 121.570312 C 334.316406 117.726562 330.6875 115.042969 326.105469 113.515625 C 323.683594 112.707031 321.417969 111.429688 319.082031 110.367188 C 321.550781 109.339844 324.082031 109.085938 326.300781 108.113281 C 328.496094 107.152344 330.375 105.46875 332.390625 104.101562 C 332.445312 104.242188 332.5 104.386719 332.558594 104.527344 C 332.839844 103.285156 333.121094 102.042969 333.472656 100.476562 C 333.003906 100.367188 332.457031 100.371094 332.085938 100.121094 C 331.398438 99.65625 330.660156 99.132812 330.261719 98.445312 C 330.125 98.207031 330.855469 97.332031 331.332031 96.90625 C 332.339844 96.003906 331.96875 95.3125 331.203125 94.527344 C 330.726562 94.039062 329.898438 93.238281 330.03125 92.90625 C 331.164062 90.148438 330.5 88.238281 328.902344 85.535156 C 327.027344 82.371094 324.523438 80.21875 321.917969 78.058594 C 320.886719 77.199219 320.613281 76.660156 321.0625 75.632812 C 321.789062 73.964844 321.027344 72.820312 319.8125 71.84375 C 318.628906 70.886719 317.296875 70.097656 316.1875 69.0625 C 313.273438 66.332031 310.542969 63.394531 307.535156 60.773438 C 306.167969 59.582031 304.390625 58.40625 302.671875 58.171875 C 299.855469 57.789062 296.945312 57.019531 294.046875 58.195312 C 291.730469 59.136719 289.300781 59.796875 286.9375 60.632812 C 286.121094 60.921875 285.394531 61.542969 284.566406 61.703125 C 280.570312 62.472656 277.5625 64.421875 275.839844 68.242188 C 275.484375 69.027344 274.503906 69.515625 273.875 70.199219 C 273.007812 71.136719 271.613281 72.066406 271.496094 73.117188 C 271.308594 74.769531 270.527344 75.714844 269.46875 76.738281 C 267.578125 78.566406 267.691406 79.953125 269.488281 81.984375 C 270.109375 82.6875 270.402344 83.695312 270.761719 84.601562 C 271.128906 85.535156 271.472656 86.496094 271.675781 87.480469 C 271.859375 88.34375 272.097656 89.335938 271.84375 90.121094 C 271.375 91.578125 271.714844 92.605469 272.679688 93.695312 C 273.203125 94.289062 273.785156 95.222656 273.6875 95.90625 C 273.253906 98.863281 273.820312 101.492188 275.4375 104 C 276.257812 105.269531 276.683594 106.785156 277.425781 108.109375 C 278.121094 109.347656 277.65625 110.101562 276.550781 110.503906 C 274.855469 111.125 273.136719 111.820312 271.367188 112.074219 C 267.253906 112.664062 264.371094 115.480469 261.027344 117.453125 C 260.636719 117.683594 260.394531 118.242188 260.191406 118.695312 C 258.160156 123.261719 256.234375 127.878906 254.089844 132.390625 C 253.367188 133.910156 252.082031 135.164062 251.078125 136.554688 C 250.710938 137.066406 250.011719 137.769531 250.144531 138.144531 C 250.796875 139.984375 249.535156 140.769531 248.480469 141.75 C 247.183594 142.964844 246.070312 144.230469 246.589844 146.292969 C 246.722656 146.824219 246.136719 147.570312 245.816406 148.179688 C 245.488281 148.800781 245.027344 149.351562 244.707031 149.976562 C 244.089844 151.175781 243.730469 152.5625 242.910156 153.589844 C 239.914062 157.335938 238.453125 161.441406 239.261719 166.265625 C 239.789062 169.417969 243.863281 173.441406 247.023438 173.425781 C 249.5 173.414062 251.976562 172.898438 254.578125 172.59375 C 254.707031 173.570312 254.839844 174.777344 253.179688 174.980469 C 251.246094 175.214844 249.265625 175.609375 247.359375 175.414062 C 241.398438 174.8125 236.382812 176.234375 232.304688 180.914062 C 231.078125 182.324219 231.429688 182.949219 232.585938 183.539062 C 238.253906 186.433594 243.886719 189.429688 249.699219 192.007812 C 255.84375 194.730469 261.292969 192.808594 266.171875 188.644531 C 266.621094 188.257812 267.222656 188.046875 267.777344 187.738281 C 267.199219 191.820312 266.675781 195.570312 266.121094 199.316406 C 266.070312 199.65625 265.808594 199.960938 265.691406 200.300781 C 265.324219 201.367188 264.800781 202.414062 264.65625 203.511719 C 264.191406 207.039062 263.988281 210.605469 263.460938 214.121094 C 263.003906 217.167969 263.15625 217.644531 266.328125 218.148438 C 267.792969 218.382812 268.421875 218.976562 268.589844 220.503906 C 269.328125 227.257812 271.328125 233.707031 273.804688 239.992188 C 277.734375 249.96875 281.792969 259.898438 285.863281 269.816406 C 286.3125 270.914062 287.089844 271.949219 287.933594 272.796875 C 291.199219 276.085938 294.636719 279.207031 297.847656 282.546875 C 299.75 284.53125 301.847656 286.578125 302.953125 289.007812 C 304.15625 291.652344 306.058594 293.273438 308.179688 294.902344 C 308.792969 295.371094 309.433594 295.902344 309.824219 296.546875 C 310.566406 297.757812 311.179688 299.054688 311.75 300.351562 C 311.996094 300.910156 312.171875 301.589844 312.109375 302.183594 C 312.03125 302.902344 311.941406 303.617188 311.839844 304.332031 C 311.46875 304.894531 311.171875 305.507812 310.976562 306.121094 C 310.601562 307.308594 310.574219 308.5 310.558594 309.699219 C 310.023438 310.699219 309.164062 311.449219 307.609375 311.730469 C 305.09375 312.1875 303.800781 315.046875 305.324219 316.695312 C 307.246094 318.769531 308.855469 321.363281 311.453125 322.582031 C 312.363281 323.207031 313.429688 323.632812 314.539062 323.855469 C 316.554688 324.261719 318.820312 324.160156 320.847656 323.5 C 320.945312 323.5 321.039062 323.503906 321.132812 323.503906 L 321.128906 323.402344 C 323.4375 322.582031 325.40625 321.011719 326.28125 318.582031 C 326.601562 317.691406 326.78125 316.761719 326.875 315.8125 C 327.203125 314.886719 327.269531 313.757812 326.976562 312.394531 C 326.757812 311.386719 327.117188 310.242188 327.285156 309.175781 C 327.605469 307.175781 327.894531 305.164062 328.351562 303.195312 C 328.941406 300.671875 329.375 298.035156 330.476562 295.738281 C 331.140625 294.363281 331.261719 293.40625 330.648438 292.171875 C 329.261719 289.386719 327.96875 286.554688 326.480469 283.824219 C 325.597656 282.199219 324.453125 280.707031 323.359375 279.203125 C 322.304688 277.75 321.167969 276.351562 320.070312 274.929688 C 320.242188 274.761719 320.417969 274.597656 320.59375 274.429688 C 322.8125 275.441406 325.152344 276.261719 327.21875 277.527344 C 328.613281 278.382812 330.085938 279.660156 330.714844 281.101562 C 332.570312 285.332031 335.4375 288.546875 339.242188 291.03125 C 343.089844 293.550781 347.890625 291.492188 348.472656 286.898438 C 349.207031 281.117188 348.152344 275.777344 343.917969 271.382812 Z M 303.523438 237.128906 C 310.945312 246.019531 312.753906 259.515625 312.753906 259.515625 C 306.21875 250.472656 303.523438 237.128906 303.523438 237.128906 Z M 329.3125 170.265625 C 329.117188 170.226562 328.925781 170.191406 328.734375 170.152344 C 327.703125 165.542969 326.675781 160.9375 325.648438 156.328125 C 325.90625 156.222656 326.164062 156.117188 326.421875 156.011719 C 327.773438 159.222656 329.375 162.359375 330.34375 165.683594 C 330.726562 167 329.699219 168.726562 329.3125 170.265625 Z M 329.3125 170.265625 " fill-opacity="1" fill-rule="nonzero"/><path fill="#ffffff" d="M 141.0625 73.375 C 141.625 72.65625 142.222656 71.882812 142.980469 71.417969 C 144.324219 70.589844 145.261719 68.921875 147.078125 69.039062 C 149.585938 69.203125 151.828125 68.441406 154.050781 67.441406 C 155.917969 66.601562 157.105469 67.207031 157.382812 69.25 C 157.59375 70.789062 157.566406 72.355469 157.652344 73.992188 C 158.222656 73.992188 158.792969 73.9375 159.347656 74 C 160.933594 74.1875 162.0625 75.691406 161.359375 76.992188 C 160.453125 78.660156 159.347656 80.28125 158.054688 81.667969 C 156.570312 83.261719 154.679688 84.476562 153.1875 86.0625 C 152.550781 86.738281 152.234375 87.9375 152.214844 88.90625 C 152.199219 89.808594 152.707031 90.75 153.085938 91.632812 C 155.683594 97.75 159.339844 103.261719 162.8125 108.894531 C 165.261719 112.871094 167.433594 117.042969 169.441406 121.261719 C 170.683594 123.875 171.996094 126.152344 174.769531 127.445312 C 177.382812 128.664062 179.949219 130.039062 182.347656 131.628906 C 185.671875 133.835938 189.171875 135.558594 192.992188 136.695312 C 195.125 137.328125 197.210938 138.136719 199.320312 138.871094 C 200.773438 139.382812 202.234375 139.882812 203.679688 140.429688 C 204.671875 140.808594 205.609375 141.355469 206.621094 141.652344 C 207.195312 141.824219 207.921875 141.796875 208.488281 141.59375 C 209.492188 141.238281 210.160156 141.441406 210.421875 142.457031 C 210.707031 143.542969 211.566406 143.714844 212.597656 143.8125 C 211.742188 142.808594 210.882812 141.804688 210.039062 140.792969 C 208.582031 139.042969 206.984375 137.386719 205.71875 135.507812 C 203.386719 132.039062 204.261719 128.074219 204.378906 124.261719 C 204.457031 121.703125 204.832031 119.144531 204.777344 116.589844 C 204.730469 114.472656 204.070312 112.367188 204.011719 110.246094 C 203.917969 106.625 204.074219 102.996094 204.136719 99.371094 C 204.1875 96.625 205.003906 94.222656 207.019531 92.21875 C 207.628906 91.609375 207.640625 90.410156 208.855469 90.351562 C 208.878906 90.347656 208.875 90.175781 208.921875 90.113281 C 209.386719 89.527344 209.839844 88.929688 210.34375 88.375 C 210.601562 88.089844 210.941406 87.875 211.257812 87.648438 C 212.5 86.753906 213.777344 85.90625 214.984375 84.972656 C 215.753906 84.375 217.320312 84.863281 217.25 83.242188 C 218.816406 83.390625 219.6875 82.671875 220.113281 80.898438 C 221.4375 82.984375 223.289062 83.226562 225.328125 83.015625 C 225.347656 82.816406 225.382812 82.492188 225.425781 82.09375 C 227.457031 82.445312 229.398438 82.78125 231.503906 83.144531 C 232.027344 82.417969 233.328125 82.433594 234.304688 83.285156 C 235.175781 84.039062 235.777344 85.75 237.464844 84.503906 C 237.539062 84.449219 237.714844 84.539062 237.84375 84.550781 C 238.585938 84.617188 239.328125 84.679688 240.109375 84.75 C 240.1875 84.960938 240.230469 85.53125 240.527344 85.746094 C 240.792969 85.933594 241.339844 85.726562 241.59375 85.707031 C 241.679688 86.207031 241.601562 86.902344 241.878906 87.101562 C 242.441406 87.5 243.246094 87.546875 243.867188 87.894531 C 244.964844 88.503906 246.847656 87.847656 247.066406 89.835938 C 247 90.484375 245.027344 90.957031 246.78125 91.695312 C 247.957031 92.191406 248.410156 93.125 248.910156 94.039062 C 249.335938 94.816406 250.359375 95.035156 250.078125 96.574219 C 249.738281 98.464844 250.578125 100.605469 251.070312 102.59375 C 251.285156 103.460938 251.386719 103.96875 250.492188 103.96875 C 250.300781 105.191406 250.320312 106.386719 249.914062 107.417969 C 248.898438 109.992188 248.199219 112.625 247.898438 115.367188 C 247.871094 115.617188 248.171875 115.894531 248.265625 116.175781 C 248.617188 117.230469 249.210938 118.285156 249.234375 119.355469 C 249.304688 122.449219 248.066406 125.171875 246.148438 127.527344 C 244.984375 128.960938 243.546875 130.121094 241.4375 129.914062 C 241.164062 129.890625 240.671875 130.425781 240.550781 130.792969 C 239.484375 133.984375 238.472656 137.191406 237.476562 140.40625 C 237.296875 140.984375 237.265625 141.605469 237.21875 141.894531 C 238.824219 141.476562 240.371094 140.675781 241.855469 140.777344 C 244.039062 140.925781 243.246094 143.472656 244.21875 144.746094 C 246.121094 143.851562 247.941406 142.957031 249.800781 142.144531 C 250.609375 141.789062 251.476562 141.464844 252.34375 141.375 C 254.675781 141.136719 257.011719 142.214844 259.375 141.386719 C 259.730469 141.261719 260.222656 141.613281 260.644531 141.59375 C 261.472656 141.554688 262.410156 141.628906 263.09375 141.265625 C 264.421875 140.554688 265.695312 140.042969 267.222656 140.410156 C 267.542969 140.488281 267.921875 140.410156 268.253906 140.328125 C 270.667969 139.761719 273.152344 139.375 275.457031 138.511719 C 276.585938 138.089844 277.5625 138.453125 278.578125 138.246094 C 280.203125 137.914062 281.855469 137.632812 283.417969 137.09375 C 284.238281 136.808594 285.316406 136.15625 285.535156 135.441406 C 286.195312 133.285156 286.648438 131.035156 286.894531 128.789062 C 287.550781 122.878906 288.035156 116.953125 288.621094 111.035156 C 289.046875 106.707031 289.242188 102.386719 288.464844 98.074219 C 288.292969 97.113281 287.878906 96.476562 286.882812 96.039062 C 283.832031 94.699219 281.582031 92.359375 279.628906 89.730469 C 279.375 89.394531 279.335938 88.820312 279.367188 88.367188 C 279.488281 86.636719 279.625 84.902344 279.882812 83.1875 C 279.960938 82.65625 280.308594 81.988281 280.742188 81.714844 C 283.363281 80.082031 286.253906 79.140625 289.304688 78.746094 C 289.734375 78.691406 290.214844 78.960938 290.652344 79.128906 C 291.054688 79.285156 291.46875 79.460938 291.8125 79.714844 C 292.40625 80.15625 293.265625 80.5625 293.449219 81.15625 C 294.121094 83.308594 294.550781 85.53125 295.082031 87.726562 C 295.574219 89.753906 296.109375 91.773438 296.566406 93.8125 C 297.085938 96.148438 297.628906 98.488281 298.003906 100.851562 C 298.472656 103.789062 298.757812 106.75 299.160156 109.695312 C 299.539062 112.457031 300.054688 115.199219 300.347656 117.964844 C 300.589844 120.269531 300.421875 122.625 300.742188 124.914062 C 301.375 129.4375 300.496094 133.902344 300.4375 138.394531 C 300.429688 138.949219 300.230469 139.507812 300.078125 140.054688 C 299.101562 143.617188 296.34375 145.671875 293.398438 147.308594 C 289.117188 149.6875 284.636719 151.703125 280.222656 153.878906 C 280.222656 154.285156 280.308594 154.730469 280.210938 155.136719 C 279.0625 159.910156 277.148438 164.355469 274.101562 168.230469 C 272.855469 169.816406 271.25 170.992188 268.988281 170.039062 C 268.546875 169.855469 268.070312 169.699219 267.597656 169.65625 C 267.097656 169.609375 266.429688 169.523438 266.097656 169.785156 C 264.976562 170.679688 263.917969 171.671875 262.933594 172.71875 C 261.289062 174.46875 259.71875 176.289062 258.121094 178.082031 C 257.800781 178.4375 257.355469 178.757812 257.214844 179.179688 C 256.644531 180.871094 255.871094 182.570312 255.722656 184.316406 C 255.328125 188.992188 255.039062 193.6875 255.34375 198.390625 C 255.613281 202.496094 255.867188 206.601562 256.175781 210.703125 C 256.449219 214.28125 256.734375 217.863281 257.125 221.433594 C 257.535156 225.167969 257.96875 228.90625 258.59375 232.609375 C 259.097656 235.566406 258.585938 238.703125 260.132812 241.488281 C 260.445312 242.050781 260.675781 242.734375 260.679688 243.363281 C 260.679688 243.976562 260.394531 244.617188 260.136719 245.199219 C 259.941406 245.648438 259.328125 246.042969 259.351562 246.433594 C 259.472656 248.453125 258.757812 250.546875 259.863281 252.496094 C 260.007812 252.75 259.898438 253.175781 259.847656 253.515625 C 259.675781 254.757812 259.335938 255.996094 259.320312 257.238281 C 259.261719 261.140625 259.3125 265.042969 259.355469 268.949219 C 259.363281 269.453125 259.582031 269.953125 259.671875 270.464844 C 259.851562 271.519531 259.988281 272.585938 260.183594 273.640625 C 260.359375 274.59375 260.535156 275.554688 260.8125 276.480469 C 261.023438 277.183594 261.476562 277.816406 261.667969 278.519531 C 262.054688 279.945312 261.355469 281.074219 260.480469 282.105469 C 259.980469 282.691406 259.800781 283.242188 260.480469 283.796875 C 262.414062 285.371094 264.257812 287.070312 266.304688 288.472656 C 269.039062 290.347656 270.964844 292.839844 272.46875 295.691406 C 273.035156 296.761719 273.773438 297.429688 274.84375 297.988281 C 277.300781 299.265625 278.980469 301.1875 279.074219 304.144531 C 279.117188 305.441406 279.589844 305.980469 280.648438 305.847656 C 280.894531 306.378906 281.183594 306.886719 281.535156 307.355469 C 282.542969 308.699219 283.511719 310.066406 284.402344 311.488281 C 284.535156 311.703125 284.65625 311.921875 284.785156 312.136719 C 285.503906 314.035156 286.136719 315.984375 287.070312 317.777344 C 287.382812 318.371094 287.769531 318.917969 288.171875 319.457031 C 288.503906 320.425781 288.816406 321.398438 289.085938 322.386719 C 289.210938 322.851562 289.414062 323.71875 289.433594 323.722656 C 289.507812 324.164062 289.578125 324.605469 289.636719 325.046875 C 289.851562 326.679688 289.925781 328.300781 289.964844 329.945312 C 289.972656 330.214844 289.96875 330.476562 289.964844 330.632812 C 289.746094 330.804688 289.523438 330.972656 289.308594 331.152344 C 288.960938 331.449219 288.773438 331.941406 288.515625 332.339844 C 288.054688 333.050781 287.753906 334.054688 287.101562 334.414062 C 286.5 334.742188 285.886719 335.011719 285.261719 335.226562 C 284.535156 336.507812 283.316406 337.5625 281.519531 338.109375 C 276.167969 339.738281 270.988281 336.566406 268.054688 332.179688 C 265.671875 328.613281 266.828125 324.675781 266.445312 320.753906 C 265.902344 319.523438 265.117188 318.394531 264.417969 317.273438 C 263.234375 315.375 261.167969 314.039062 259.578125 312.375 C 258.945312 311.714844 258.195312 310.886719 258.082031 310.058594 C 257.714844 307.292969 255.753906 305.964844 253.578125 305.15625 C 249.207031 303.527344 245.65625 301.03125 243.472656 296.859375 C 241.804688 293.675781 240.175781 290.472656 238.558594 287.261719 C 238.273438 286.699219 237.988281 286.132812 237.703125 285.566406 C 237.582031 284.980469 237.464844 284.390625 237.328125 283.808594 C 236.886719 281.902344 236.222656 280.167969 235.4375 278.453125 C 235.785156 277.898438 236.019531 277.390625 235.804688 276.960938 C 235.179688 275.714844 233.3125 273.847656 233.3125 272.601562 C 233.933594 264.507812 229.574219 258.90625 222.71875 262.640625 C 215.863281 267.207031 212.683594 275.4375 212.679688 283.972656 C 212.65625 284.015625 212.632812 284.054688 212.613281 284.097656 C 212.488281 284.355469 212.226562 284.601562 211.964844 284.730469 C 210.75 285.316406 210.457031 286.300781 210.558594 287.554688 C 210.667969 288.964844 209.953125 289.863281 208.636719 290.34375 C 208.039062 290.5625 207.476562 290.863281 206.878906 291.136719 C 207.019531 291.390625 207.066406 291.511719 207.144531 291.613281 C 208.421875 293.230469 209.03125 294.914062 208.398438 297.0625 C 208.058594 298.214844 208.117188 299.632812 208.441406 300.808594 C 209.75 305.554688 210.617188 310.332031 210.59375 315.277344 C 210.578125 317.777344 209.835938 319.71875 207.613281 320.980469 C 206.835938 321.421875 206.640625 321.925781 207.148438 322.789062 C 208.480469 325.0625 208.5 327.421875 207.460938 329.847656 C 207.265625 330.300781 207.347656 330.984375 207.539062 331.464844 C 208.746094 334.476562 209.773438 337.515625 209.78125 340.808594 C 209.78125 340.964844 209.789062 341.136719 209.820312 341.296875 C 209.390625 342.535156 209.203125 343.84375 209.335938 345.148438 C 209.445312 346.195312 209.492188 347.238281 209.539062 348.277344 C 209.414062 348.984375 209.363281 349.691406 209.441406 350.417969 C 209.386719 351.144531 209.347656 351.878906 209.335938 352.621094 C 209.3125 354.398438 210.007812 356.117188 211.027344 357.597656 C 211.050781 357.667969 211.070312 357.742188 211.09375 357.8125 C 211.195312 358.4375 211.390625 359 211.648438 359.523438 C 211.945312 360.421875 212.242188 361.324219 212.523438 362.246094 C 212.59375 362.480469 212.65625 362.71875 212.722656 362.953125 C 212.710938 363.011719 212.730469 363.285156 212.789062 363.769531 C 212.660156 363.949219 212.511719 364.132812 212.316406 364.320312 C 211.925781 364.703125 211.679688 365.230469 211.363281 365.691406 C 210.90625 366.351562 210.582031 367.214844 209.960938 367.636719 C 207.851562 369.058594 205.402344 369.800781 202.90625 369.820312 C 198.957031 369.847656 195.089844 369.074219 191.414062 367.578125 C 189.320312 366.722656 187.425781 365.253906 187.46875 362.9375 C 187.519531 360.167969 188.335938 357.414062 188.828125 354.652344 C 188.859375 354.484375 188.964844 354.328125 189.042969 354.171875 C 189.839844 352.628906 190.167969 351.085938 189.339844 349.410156 C 189.058594 348.847656 189.023438 348.132812 188.992188 347.480469 C 188.910156 345.785156 187.910156 344.117188 188.875 342.371094 C 189.023438 342.109375 188.847656 341.578125 188.679688 341.246094 C 188.058594 340.023438 187.773438 338.882812 188.507812 338.203125 C 188.445312 337.886719 188.394531 337.570312 188.339844 337.253906 C 188.054688 336.875 187.78125 336.488281 187.640625 336.058594 C 187.253906 334.859375 187.128906 333.578125 186.8125 332.351562 C 186.628906 331.625 186.421875 330.847656 185.996094 330.257812 C 184.78125 328.566406 185.105469 326.792969 186.910156 325.972656 C 186.964844 325.945312 187.023438 325.925781 187.082031 325.902344 C 187.039062 325.34375 187 324.78125 186.964844 324.222656 C 186.902344 324.160156 186.839844 324.097656 186.785156 324.03125 C 185.457031 322.472656 185.628906 320.667969 186.296875 318.960938 C 186.410156 318.667969 186.511719 318.378906 186.609375 318.09375 C 186.523438 316.371094 186.445312 314.648438 186.378906 312.925781 C 186.105469 312.035156 186.066406 311.019531 186.046875 310.074219 C 185.925781 304.390625 185.875 298.707031 185.777344 293.019531 C 185.769531 292.460938 185.574219 291.90625 185.519531 291.34375 C 185.339844 289.582031 185.140625 287.816406 185.046875 286.050781 C 185.027344 285.617188 185.3125 285.128906 185.558594 284.730469 C 186.375 283.433594 186.289062 282.359375 185.105469 281.421875 C 184.382812 280.84375 184.335938 280.261719 184.675781 279.464844 C 185.121094 278.425781 185.421875 277.328125 185.882812 276.296875 C 186.058594 275.90625 186.460938 275.441406 186.835938 275.359375 C 187.074219 275.308594 187.269531 275.226562 187.449219 275.132812 C 188.832031 262.984375 191.296875 250.960938 194.832031 239.257812 C 194.5 238.863281 194.351562 238.304688 194.226562 237.761719 C 193.914062 236.386719 193.101562 234.816406 194.214844 233.613281 C 195.335938 232.40625 195.363281 231.066406 195.558594 229.640625 C 195.707031 228.535156 196.046875 227.429688 196.472656 226.394531 C 197.082031 224.921875 198.550781 224.554688 199.910156 224.253906 C 201.15625 223.980469 201.640625 223.34375 201.726562 222.113281 C 201.8125 220.898438 202.195312 219.707031 202.292969 218.488281 C 202.429688 216.785156 203.253906 215.121094 202.535156 213.355469 C 201.566406 210.972656 200.515625 208.609375 199.761719 206.15625 C 198.980469 203.617188 198.179688 201.003906 197.980469 198.382812 C 197.625 193.671875 197.675781 188.929688 197.632812 184.203125 C 197.585938 179.695312 197.722656 175.1875 197.605469 170.683594 C 197.539062 168.078125 195.257812 165.800781 192.886719 166.078125 C 191.609375 166.226562 190.265625 166.125 188.992188 165.90625 C 186.984375 165.5625 186.695312 165.070312 186.855469 163.027344 C 186.878906 162.722656 186.933594 162.417969 186.96875 162.113281 C 187.277344 159.15625 187.675781 156.203125 187 153.230469 C 186.792969 152.3125 186.355469 151.800781 185.546875 151.390625 C 183.710938 150.460938 181.796875 149.613281 180.136719 148.421875 C 174.308594 144.234375 168.539062 139.953125 162.816406 135.621094 C 160.9375 134.199219 158.988281 132.726562 157.554688 130.898438 C 153.101562 125.222656 150.914062 118.460938 148.835938 111.667969 C 147.441406 107.109375 145.929688 102.585938 144.425781 98.0625 C 143.792969 96.15625 142.800781 94.339844 142.402344 92.394531 C 141.6875 88.894531 141.296875 85.324219 140.765625 81.785156 C 140.617188 80.796875 140.363281 79.816406 140.316406 78.824219 C 140.222656 76.96875 139.757812 75.023438 141.0625 73.375 Z M 141.0625 73.375 " fill-opacity="1" fill-rule="nonzero"/></svg>